<svg xmlns="http://www.w3.org/2000/svg" viewBox="0 0 925.99 129.39"><defs><style>.cls-1{fill:#f7a600;}.cls-2{fill:#fff;}</style></defs><g id="Layer_2" data-name="Layer 2"><g id="Layer_1-2" data-name="Layer 1"><path class="cls-1" d="M926,66.62v-42H912a21.06,21.06,0,0,0-20.94,21.16V66.62h4V45.76a17.21,17.21,0,0,1,17-17.35h10V66.62Zm-37.78-42H872.79a21,21,0,0,0,0,42h7.65V62.81h-7.65a17.2,17.2,0,0,1,0-34.4h11.47V66.62h4Zm-95.51,42h3.95V28.41h5.24a17.21,17.21,0,0,1,17,17.35V66.62h4V28.41h5.24a17.21,17.21,0,0,1,17,17.35V66.62h4V45.76A21.07,21.07,0,0,0,828.08,24.6h-9.2v8.84a20.75,20.75,0,0,0-17-8.84H792.7Zm-34.54,16V28.41h11.47a17.2,17.2,0,0,1,0,34.4H762v3.81h7.64a21,21,0,0,0,0-42H754.21v58ZM730,63.52a17.91,17.91,0,1,1,18.11-18.05A18,18,0,0,1,730,63.52m0,3.81a21.92,21.92,0,0,0,22.08-21.86c0-11.82-9.91-21.58-22.08-21.58s-22.07,9.76-22.07,21.58A21.91,21.91,0,0,0,730,67.33m-59.15-.71h3.95V28.41h10.05a17.21,17.21,0,0,1,17,17.35V66.62h3.95V45.76A21.06,21.06,0,0,0,684.86,24.6h-14Z"/><path class="cls-2" d="M635.61,8.53h28.46V4.71H635.61Zm-4,16.06V45.47A21.07,21.07,0,0,0,652.6,66.62H668v-42h-3.95V62.81H652.6a17.21,17.21,0,0,1-17-17.34V24.59Zm-39.2,0V45.47A21.07,21.07,0,0,0,613.4,66.62h15.43v-42h-4V62.81H613.4a17.2,17.2,0,0,1-17-17.34V24.59ZM562,66.62h4V57.5l6-7.78L585,66.62h4.81l-15.63-20,17.12-22.08h-4.81L566,51.27V4.71h-4Zm-2.84-42h-7.64a21,21,0,0,0,0,42h7.64V62.81h-7.64a17.2,17.2,0,0,1,0-34.4h7.64ZM493.69,45.4v3.81h34.1V45.4c0-11.89-9.41-21.51-20.95-21.51S485.9,33.58,485.9,45.47a21.08,21.08,0,0,0,20.94,21.15h17V62.81h-17a17.2,17.2,0,0,1-17-17.34c0-9.84,7.64-17.77,17-17.77s17,7.93,17,17.7ZM479.12,24.59V47.24h-8a17.2,17.2,0,0,1-17-17.34V24.59h-4V29.9a21.08,21.08,0,0,0,20.94,21.16h8V66.62h3.95v-42Zm-67.44,0V45.47a21.08,21.08,0,0,0,20.95,21.15H448v-42h-4V62.81H432.63a17.2,17.2,0,0,1-17-17.34V24.59Zm-37.78,0v42h4V45.39h27V66.62h3.95v-42h-3.95v17h-27v-17ZM337,45.4v3.81h34.1V45.4c0-11.89-9.4-21.51-20.94-21.51s-20.94,9.69-20.94,21.58a21.08,21.08,0,0,0,20.94,21.15h17V62.81h-17a17.2,17.2,0,0,1-17-17.34c0-9.84,7.64-17.77,17-17.77s17,7.93,17,17.7ZM284.6,24.6H277a21,21,0,0,0,0,42h7.64V62.81H277a17.2,17.2,0,0,1,0-34.4h7.64Z"/><path class="cls-2" d="M908.51,91.89h14.18V90H908.51Zm-2,8v10.41A10.49,10.49,0,0,0,917,120.85h7.69V99.9h-2v19H917a8.58,8.58,0,0,1-8.47-8.64V99.9Zm-20.25,0v10.41a10.5,10.5,0,0,0,10.44,10.54h7.68V99.9h-2v19h-5.71a8.58,8.58,0,0,1-8.47-8.64V99.9Zm-23.63,0H855a10.47,10.47,0,0,0,0,20.94h3.8V119H855a8.57,8.57,0,0,1,0-17.14h5.71v19h2Zm-36,28.91v-27h5.72a8.57,8.57,0,0,1,0,17.14h-3.81v1.9h3.81a10.47,10.47,0,0,0,0-20.94h-7.69v28.91Zm-14.73-9.52a8.92,8.92,0,1,1,9-9,9,9,0,0,1-9,9m0,1.9a10.82,10.82,0,1,0-11-10.89,10.91,10.91,0,0,0,11,10.89m-24.06-.35h2v-4.54l3-3.88,6.52,8.42h2.4l-7.8-9.94,8.54-11H800l-10.23,13.3V90h-2Zm-19.11-10.57v1.9h17v-1.9a10.44,10.44,0,1,0-10.43,10.57h8.46V119h-8.46a8.58,8.58,0,0,1-8.47-8.64,8.47,8.47,0,1,1,16.93,0ZM758.84,119H755a8.57,8.57,0,0,1,0-17.14h5.72V119a8.53,8.53,0,0,1-8.47,8.54h-5.71v1.9h5.71A10.46,10.46,0,0,0,762.71,119v-19H755a10.47,10.47,0,0,0,0,20.94h3.82Z"/><path class="cls-1" d="M396,99.91h-7.68a10.47,10.47,0,0,0,0,20.94h3.81V119h-3.81a8.57,8.57,0,0,1,0-17.14h5.71v19h2Zm-34,20.94h2v-4.54l3-3.88,6.53,8.42h2.39l-7.79-9.94,8.54-11h-2.4L364,113.2V90h-2ZM341.8,99.9v10.41a10.5,10.5,0,0,0,10.44,10.54h7.69V99.9h-2v19h-5.72a8.58,8.58,0,0,1-8.47-8.64V99.9Zm-17.92,28.92v-27h5.71a8.57,8.57,0,0,1,0,17.14h-3.8v1.9h3.8a10.47,10.47,0,0,0,0-20.94h-7.68v28.91Zm-18.34-27h3.81a8.57,8.57,0,0,1,0,17.14h-5.71V99.87a8.53,8.53,0,0,1,8.46-8.54h5.72v-1.9H312.1a10.46,10.46,0,0,0-10.43,10.44v21h7.68a10.47,10.47,0,0,0,0-20.94h-3.81Zm-6-1.9h-7.69a10.47,10.47,0,0,0,0,20.94h3.81V119h-3.81a8.57,8.57,0,0,1,0-17.14h5.72v19h2Zm-32.27,28.91v-27h1.94a8.57,8.57,0,0,1,0,17.14H269v1.9h.18a10.47,10.47,0,0,0,0-20.94h-1.94V90h-2v9.92h-1.94a10.47,10.47,0,0,0,0,20.94h.18V119h-.18a8.57,8.57,0,0,1,0-17.14h1.94v27Z"/><path class="cls-1" d="M212.42,49H64.76L15.15,120.57H162.81Zm-9.09,4.75-43,62.08H24.23l43-62.08Z"/><path class="cls-2" d="M250.19,18.47H102.53L52.92,90.06H200.58Zm-9.09,4.76-43,62.08H62l43-62.08Z"/><polygon class="cls-1" points="187.46 0 47.14 0 0 68.03 140.32 68.03 187.46 0"/><path class="cls-2" d="M34.78,43.55l8.93-8.63c1.69-1.66,3.57-3.25,3.57-5.79a4.87,4.87,0,0,0-5.08-5c-3.47,0-5.1,2.89-4.92,5.77H35c-.18-3.73,2.1-7.87,7.43-7.87,4,0,7.21,2.63,7.21,7.09,0,3.6-2.19,5.42-4.26,7.39l-7.37,7H49.48v2.1H34.78Z"/><path class="cls-2" d="M55.24,22.42H65.71v2.1H57.13L56,30.94a7.06,7.06,0,0,1,3.92-1.09c4.64,0,7.75,3.38,7.75,8S64.46,46,59.85,46a7.87,7.87,0,0,1-8-7.68h2.32a5.53,5.53,0,0,0,5.52,5.58c2.91,0,5.57-2.13,5.57-6,0-3.36-2.1-6-5.54-6A5.89,5.89,0,0,0,55,34.52l-1.85-.66Z"/><path class="cls-2" d="M94.93,45.62V22.41H87.2A11.63,11.63,0,0,0,75.64,34.09V45.62h2.18V34.09a9.5,9.5,0,0,1,9.38-9.57h5.55v21.1Z"/><path class="cls-2" d="M101.23,34.09v2.06H119.7V34.09a11.34,11.34,0,1,0-11.34,11.49h9.2V43.51h-9.2a9.32,9.32,0,0,1-9.2-9.38,9.21,9.21,0,1,1,18.4,0Z"/><path class="cls-2" d="M121.62,45.62h2.18V24.54h2.89a9.49,9.49,0,0,1,9.37,9.57V45.62h2.18V24.54h2.89a9.49,9.49,0,0,1,9.38,9.57V45.62h2.18V34.11a11.63,11.63,0,0,0-11.56-11.68h-5.07v4.88a11.44,11.44,0,0,0-9.37-4.88h-5.07Z"/><path class="cls-2" d="M327.75,62.81H323.8V24.59h-3.95V62.81H308.38a17.21,17.21,0,0,1-17-17.34V24.59h-3.95V45.47a21.07,21.07,0,0,0,20.94,21.15h19.37V82.57h3.8V62.81Z"/><path class="cls-2" d="M884.89,119h-2V99.91h-2V119h-5.72a8.58,8.58,0,0,1-8.47-8.65V99.91h-2v10.41a10.51,10.51,0,0,0,10.44,10.55h9.66v7.95h1.89V119Z"/></g></g></svg>